<mxfile host="drawio-plugin" modified="2023-01-09T11:03:19.982Z" agent="5.0 (Macintosh; Intel Mac OS X 10_15_7) AppleWebKit/537.36 (KHTML, like Gecko) Chrome/104.0.5112.102 Safari/537.36" etag="TkRHZ9NYHKRy1Fn0OUkg" version="20.5.3" type="embed"><diagram id="DWjpSvbVxY2pOprUcE6g" name="Page-1"><mxGraphModel dx="1015" dy="700" grid="1" gridSize="10" guides="1" tooltips="1" connect="1" arrows="1" fold="1" page="1" pageScale="1" pageWidth="827" pageHeight="1169" math="0" shadow="0"><root><mxCell id="0"/><mxCell id="1" parent="0"/><mxCell id="175" value="" style="rounded=0;whiteSpace=wrap;html=1;sketch=1;" parent="1" vertex="1"><mxGeometry x="168" y="290" width="950" height="160" as="geometry"/></mxCell><mxCell id="231" value="" style="rounded=0;whiteSpace=wrap;html=1;sketch=1;" parent="1" vertex="1"><mxGeometry x="168" y="449" width="950" height="160" as="geometry"/></mxCell><mxCell id="129" value="" style="rounded=0;whiteSpace=wrap;html=1;sketch=1;" parent="1" vertex="1"><mxGeometry x="168" y="130" width="950" height="160" as="geometry"/></mxCell><mxCell id="171" value="consumer-aligned" style="text;html=1;strokeColor=none;fillColor=none;align=center;verticalAlign=middle;whiteSpace=wrap;rounded=0;sketch=1;fontFamily=Architects Daughter;fontSource=https%3A%2F%2Ffonts.googleapis.com%2Fcss%3Ffamily%3DArchitects%2BDaughter;direction=east;rotation=-90;" parent="1" vertex="1"><mxGeometry x="130" y="195" width="105" height="30" as="geometry"/></mxCell><mxCell id="172" value="source-aligned" style="text;html=1;strokeColor=none;fillColor=none;align=center;verticalAlign=middle;whiteSpace=wrap;rounded=0;sketch=1;fontFamily=Architects Daughter;fontSource=https%3A%2F%2Ffonts.googleapis.com%2Fcss%3Ffamily%3DArchitects%2BDaughter;direction=east;rotation=-90;" parent="1" vertex="1"><mxGeometry x="130" y="516" width="105" height="30" as="geometry"/></mxCell><mxCell id="199" value="aggregate" style="text;html=1;strokeColor=none;fillColor=none;align=center;verticalAlign=middle;whiteSpace=wrap;rounded=0;sketch=1;fontFamily=Architects Daughter;fontSource=https%3A%2F%2Ffonts.googleapis.com%2Fcss%3Ffamily%3DArchitects%2BDaughter;direction=east;rotation=-90;" parent="1" vertex="1"><mxGeometry x="130" y="355" width="105" height="30" as="geometry"/></mxCell><mxCell id="232" value="datamesh-architecture.com" style="text;html=1;strokeColor=none;fillColor=none;align=right;verticalAlign=middle;whiteSpace=wrap;rounded=0;sketch=1;fillStyle=hachure;fontFamily=Architects Daughter;fontSource=https%3A%2F%2Ffonts.googleapis.com%2Fcss%3Ffamily%3DArchitects%2BDaughter;fontSize=12;fontColor=#000000;" parent="1" vertex="1"><mxGeometry x="848" y="610" width="270" height="30" as="geometry"/></mxCell></root></mxGraphModel></diagram></mxfile>